<?xml version="1.0" encoding="UTF-8"?>
<svg xmlns="http://www.w3.org/2000/svg" xmlns:xlink="http://www.w3.org/1999/xlink" width="24pt" height="24pt" viewBox="0 0 24 24" version="1.1">
<g id="surface1">
<path style=" stroke:none;fill-rule:nonzero;fill:#FFFFFF;fill-opacity:1;" d="M 20.5 12 C 20.5 16.695313 16.695313 20.5 12 20.5 C 7.304688 20.5 3.5 16.695313 3.5 12 C 3.5 7.304688 7.304688 3.5 12 3.5 C 16.695313 3.5 20.5 7.304688 20.5 12 Z "/>
<path style=" stroke:none;fill-rule:nonzero;fill:#455A64;fill-opacity:1;" d="M 10.5 20.5 L 10.5 17.75 C 10.5 17.609375 10.609375 17.5 10.75 17.5 C 10.890625 17.5 11 17.609375 11 17.75 L 11 20.5 L 12 20.5 L 12 17.25 C 12 17.109375 12.109375 17 12.25 17 C 12.390625 17 12.5 17.109375 12.5 17.25 L 12.5 20.5 L 13.5 20.5 L 13.5 17.75 C 13.5 17.609375 13.609375 17.5 13.75 17.5 C 13.890625 17.5 14 17.609375 14 17.75 L 14 20.5 L 14.878906 20.5 C 14.957031 20.363281 15 20.1875 15 19.960938 L 15 17.992188 C 15 16.90625 14.046875 15.375 12.875 15.375 L 11.625 15.375 C 10.453125 15.375 9.5 16.910156 9.5 17.992188 L 9.5 19.960938 C 9.5 20.1875 9.542969 20.363281 9.621094 20.5 Z "/>
<path style="fill:none;stroke-width:0.25;stroke-linecap:round;stroke-linejoin:round;stroke:#455A64;stroke-opacity:1;stroke-miterlimit:10;" d="M 34.617188 26.195313 C 34.617188 26.195313 36.53125 25.867188 37.65625 25.890625 C 38.804688 25.898438 40.101563 26.25 40.101563 26.25 " transform="matrix(0.5,0,0,0.5,0,0)"/>
<path style="fill:none;stroke-width:0.25;stroke-linecap:round;stroke-linejoin:round;stroke:#455A64;stroke-opacity:1;stroke-miterlimit:10;" d="M 34.140625 26.8125 C 34.140625 26.8125 36.320313 26.609375 37.21875 26.640625 C 38.476563 26.671875 39.8125 27.054688 39.8125 27.054688 " transform="matrix(0.5,0,0,0.5,0,0)"/>
<path style="fill:none;stroke-width:0.25;stroke-linecap:round;stroke-linejoin:round;stroke:#455A64;stroke-opacity:1;stroke-miterlimit:10;" d="M 14.5625 26.09375 C 14.5625 26.09375 11.859375 25.84375 11.015625 25.84375 C 10.15625 25.84375 8.5625 26.09375 7.78125 26.3125 " transform="matrix(0.5,0,0,0.5,0,0)"/>
<path style="fill:none;stroke-width:0.25;stroke-linecap:round;stroke-linejoin:round;stroke:#455A64;stroke-opacity:1;stroke-miterlimit:10;" d="M 15.179688 26.9375 C 15.179688 26.9375 12.34375 26.671875 11.046875 26.828125 C 9.5 27.007813 8.15625 27.8125 8.15625 27.8125 " transform="matrix(0.5,0,0,0.5,0,0)"/>
<path style=" stroke:none;fill-rule:nonzero;fill:#455A64;fill-opacity:1;" d="M 7.085938 11.730469 C 7.085938 9.523438 9.398438 7.5 12.25 7.5 C 15.097656 7.5 17.414063 9.523438 17.414063 11.730469 C 17.414063 13.9375 15.757813 15.5 12.25 15.5 C 8.742188 15.5 7.085938 13.9375 7.085938 11.730469 Z "/>
<path style=" stroke:none;fill-rule:nonzero;fill:#455A64;fill-opacity:1;" d="M 14.292969 8.15625 C 14.292969 8.15625 15.132813 7 16.679688 7 C 17.296875 7.617188 16.871094 9.378906 16.671875 9.90625 Z "/>
<path style=" stroke:none;fill-rule:nonzero;fill:#455A64;fill-opacity:1;" d="M 10.203125 8.15625 C 10.203125 8.15625 9.363281 7 7.820313 7 C 7.207031 7.617188 7.625 9.382813 7.828125 9.910156 Z "/>
<path style=" stroke:none;fill-rule:nonzero;fill:#455A64;fill-opacity:1;" d="M 10.054688 17.929688 C 10.054688 17.929688 8.878906 17.929688 8.65625 17.929688 C 8.046875 17.929688 7.507813 17.664063 7.246094 17.179688 C 6.953125 16.640625 6.675781 16.03125 5.953125 15.523438 C 5.828125 15.4375 5.898438 15.304688 6.148438 15.335938 C 6.394531 15.359375 6.859375 15.414063 7.210938 15.878906 C 7.570313 16.34375 7.953125 16.875 8.617188 16.875 C 9.277344 16.875 9.992188 16.894531 10.351563 16.417969 Z "/>
<path style=" stroke:none;fill-rule:nonzero;fill:#00BCD4;fill-opacity:1;" d="M 12 2 C 6.476563 2 2 6.476563 2 12 C 2 17.523438 6.476563 22 12 22 C 17.523438 22 22 17.523438 22 12 C 22 6.476563 17.523438 2 12 2 Z M 12 20.015625 C 7.578125 20.015625 3.984375 16.421875 3.984375 12 C 3.984375 7.578125 7.578125 3.984375 12 3.984375 C 16.421875 3.984375 20.015625 7.578125 20.015625 12 C 20.015625 16.421875 16.421875 20.015625 12 20.015625 Z "/>
</g>
</svg>
