<?xml version="1.0" encoding="UTF-8"?>
<svg xmlns="http://www.w3.org/2000/svg" xmlns:xlink="http://www.w3.org/1999/xlink" width="24pt" height="24pt" viewBox="0 0 24 24" version="1.1">
<g id="surface1">
<path style=" stroke:none;fill-rule:nonzero;fill:#0288D1;fill-opacity:1;" d="M 21 18.5 C 21 19.882813 19.882813 21 18.5 21 L 5.5 21 C 4.117188 21 3 19.882813 3 18.5 L 3 5.5 C 3 4.117188 4.117188 3 5.5 3 L 18.5 3 C 19.882813 3 21 4.117188 21 5.5 Z "/>
<path style=" stroke:none;fill-rule:nonzero;fill:#FFFFFF;fill-opacity:1;" d="M 6 9.5 L 8.5 9.5 L 8.5 18 L 6 18 Z "/>
<path style=" stroke:none;fill-rule:nonzero;fill:#FFFFFF;fill-opacity:1;" d="M 7.242188 8.5 L 7.226563 8.5 C 6.484375 8.5 6 7.945313 6 7.25 C 6 6.539063 6.5 6 7.257813 6 C 8.015625 6 8.484375 6.539063 8.5 7.25 C 8.5 7.945313 8.015625 8.5 7.242188 8.5 Z "/>
<path style=" stroke:none;fill-rule:nonzero;fill:#FFFFFF;fill-opacity:1;" d="M 18 18 L 15.5 18 L 15.5 13.453125 C 15.5 12.351563 14.886719 11.601563 13.90625 11.601563 C 13.15625 11.601563 12.75 12.109375 12.550781 12.59375 C 12.476563 12.773438 12.5 13.257813 12.5 13.5 L 12.5 18 L 10 18 L 10 9.5 L 12.5 9.5 L 12.5 10.808594 C 12.859375 10.25 13.425781 9.5 14.867188 9.5 C 16.65625 9.5 18 10.625 18 13.136719 Z "/>
</g>
</svg>
