<?xml version="1.0" encoding="UTF-8"?>
<svg xmlns="http://www.w3.org/2000/svg" xmlns:xlink="http://www.w3.org/1999/xlink" width="24pt" height="24pt" viewBox="0 0 24 24" version="1.1">
<g id="surface1">
<path style=" stroke:none;fill-rule:nonzero;fill:#673AB7;fill-opacity:1;" d="M 20 5 L 4 5 C 2.894531 5 2 5.894531 2 7 L 2 17 C 2 18.105469 2.894531 19 4 19 L 20 19 C 21.105469 19 22 18.105469 22 17 L 22 7 C 22 5.894531 21.105469 5 20 5 Z "/>
<path style=" stroke:none;fill-rule:nonzero;fill:#B39DDB;fill-opacity:1;" d="M 22 7.011719 C 22 6.78125 21.953125 6.5625 21.882813 6.351563 L 12 13.511719 L 2.121094 6.351563 C 2.046875 6.5625 2 6.78125 2 7.011719 L 2 7.5 L 12 14.75 L 22 7.5 Z "/>
</g>
</svg>
